<svg width="498" height="480" viewBox="0 0 498 480" fill="none" xmlns="http://www.w3.org/2000/svg">
<path d="M498 0H0V480H498V0Z" fill="white"/>
<path fill-rule="evenodd" clip-rule="evenodd" d="M296.73 400.233C344.822 400.233 387.027 365.753 363.325 318.918C339.623 272.084 427.69 273.597 453.56 241.228C485.11 201.753 475.973 34.1882 273.439 136.344C240.996 152.708 157.674 119.509 130.036 135.982C97.5023 155.372 51.7304 195.077 97.5023 235.748C120.049 255.782 39.2147 307.782 74.6185 354.359C109.163 399.808 133.38 356.482 185.974 365.753C238.568 375.022 261.012 400.233 296.73 400.233Z" fill="#E3F5FF"/>
<path d="M242.151 320.441C242.151 320.441 253.225 315.42 257.359 311.927C261.493 308.434 266.633 299.756 266.633 299.756C266.633 299.756 323.088 339.054 359.899 333.449C368.381 332.157 384.907 326.724 385.961 317.149C388.838 291.006 349.022 284.325 357.719 271.068C363.029 262.975 379.52 275.019 379.52 275.019L447.924 307.449C447.924 307.449 424.293 363.596 366.944 365.846C296.398 368.614 242.151 320.441 242.151 320.441Z" fill="white"/>
<path fill-rule="evenodd" clip-rule="evenodd" d="M187.919 100.558C187.277 100.315 183.828 96.2454 179.451 95.5049C177.463 95.1683 179.267 97.6093 177.079 97.6317C170.559 97.6969 159.964 96.5161 158.001 97.6317C156.542 98.4579 159.754 101.344 158.001 101.476C141.453 102.727 116.207 118.652 110.731 126.378C108.987 128.837 123.085 124.665 120.839 125.881C118.317 127.245 115.521 136.179 113.85 143.078C112.693 147.829 111.964 153.944 111.707 160.596C111.492 166.339 111.578 167.289 112.435 170.429C113.421 173.941 114.193 174.974 115.521 174.478C115.993 174.313 116.207 173.693 116.207 172.536C116.207 171.627 116.722 168.9 117.365 166.462L118.479 162.084L118.951 163.901C119.551 166.008 123.066 172.536 126.238 177.287C126.409 177.54 127.145 177.219 127.809 175.673C128.414 174.263 128.168 172.012 129.196 169.6C131.536 164.104 136.131 156.959 141.453 151.239C149.317 142.787 151.926 133.004 159.298 125.151C173.056 110.496 190.322 101.467 187.919 100.558Z" fill="white"/>
<path fill-rule="evenodd" clip-rule="evenodd" d="M121.035 127.874C118.827 129.585 115.551 143.459 115.495 143.691C114.338 148.442 113.223 164.941 114.363 168.065C115.503 171.189 118.696 159.929 118.696 159.929C118.696 159.929 123.523 172.008 127.787 175.32C127.969 175.461 122.718 160.375 121.035 151.568C118.811 139.942 122.29 126.901 121.035 127.874Z" fill="#E7EAEE"/>
<path fill-rule="evenodd" clip-rule="evenodd" d="M203.291 370.859C207.406 369.991 214.349 366.97 217.008 365.937C219.666 364.903 227.767 353.879 230.682 341.442C232.782 332.27 233.853 319.215 232.653 317.025C232.476 316.715 231.828 310.778 233.553 312.716C237.39 317.025 241.944 323.79 256.314 311.668C260.228 308.366 265.415 304.106 264.05 300.339C260.228 289.799 243.661 268.577 241.136 266.969C238.116 265.047 222.854 266.681 200.141 260.219C174.382 252.891 163.656 231.312 153.576 234.121C145.424 236.393 125.892 250.352 120.991 259.193C97.849 300.928 125.892 330.172 132.279 338.572L138.48 341.154L138.694 346.483L138.994 349.829C139.551 356.233 139.765 356.812 142.766 358.96C150.267 364.455 165.056 369.578 178.429 371.396C184.645 372.222 198.148 371.933 203.291 370.859Z" fill="white"/>
<path fill-rule="evenodd" clip-rule="evenodd" d="M140.918 344.532L141.218 347.878C141.776 354.283 141.99 354.861 144.99 357.009C149.416 360.251 156.377 363.363 164.088 365.744C169.447 367.398 175.17 368.699 180.654 369.445C186.869 370.271 200.371 369.982 205.515 368.908C208.058 368.377 187.144 352.54 174.824 357.009C165.363 360.441 143.063 334.265 152.13 327.427C162.301 319.755 143.663 289.499 143.063 282.93C142.462 276.361 140.099 274.791 140.03 275.022C139.961 275.252 139.961 276.038 140.146 277.932C140.947 286.094 140.918 344.532 140.918 344.532Z" fill="#E7EAEE"/>
<path fill-rule="evenodd" clip-rule="evenodd" d="M138.686 281.055C139.585 280.886 140.457 281.452 140.632 282.32C143.867 298.34 157.551 309.185 182.02 314.857C206.635 320.562 223.402 320.254 232.236 314.164C232.982 313.65 232.426 318.052 231.879 318.39C226.118 321.951 206.528 327.265 183.15 322.462C153.258 316.322 139.223 292.096 137.373 282.932C137.198 282.064 137.785 281.224 138.686 281.055Z" fill="#FFB61D"/>
<path fill-rule="evenodd" clip-rule="evenodd" d="M126.22 252.15C127.017 251.711 156.705 284.507 197.448 291.93C238.191 299.353 248.055 294.633 249.641 284.507C249.777 283.633 250.623 283.031 251.53 283.163C252.437 283.295 253.06 284.11 252.924 284.984C250.914 297.817 232.061 300.869 196.889 295.084C162.159 289.372 138.348 275.801 125.604 254.333C125.149 253.566 125.425 252.588 126.22 252.15Z" fill="#FFB61D"/>
<path fill-rule="evenodd" clip-rule="evenodd" d="M297.225 250.332C296.11 249.961 294.91 249.134 294.139 248.184L292.853 246.655L297.396 242.317C304.384 235.707 309.741 228.931 314.371 220.875C315.914 218.189 319.814 209.223 319.814 208.356C319.814 208.067 320.286 206.91 320.843 205.712C321.701 203.977 322.343 203.316 324.187 202.324C326.373 201.084 328.859 200.672 329.93 201.374C331.988 202.696 331.988 206.869 329.93 214.057C327.659 221.948 324.616 227.609 318.314 235.748C317.328 236.987 315.485 239.425 314.156 241.119C310.599 245.664 308.284 247.853 305.155 249.547C302.069 251.2 300.268 251.406 297.225 250.332ZM328.001 246.614L331.088 247.936C331.728 248.22 338.788 251.49 347.268 255.418C360.94 261.75 378.305 269.792 378.41 269.792C378.582 269.792 379.386 267.999 379.568 265.908C379.997 261.405 381.582 255.29 383.425 251.035C384.283 249.134 384.969 246.759 384.969 246.553C384.969 246.458 384.272 246.187 383.131 245.744C381.773 245.216 379.786 244.443 377.596 243.433C366.794 238.434 345.662 228.229 343.047 226.7C340.475 225.254 339.961 225.13 339.961 226.08C339.961 227.32 337.346 233.063 335.331 236.161C334.26 237.855 332.159 240.912 330.659 242.937L328.001 246.614ZM377.682 262.355C378.911 263.042 376.781 264.049 376.268 264.214C373.238 264.462 369.673 263.913 366.751 262.272C365.224 261.228 353.195 254.788 345.217 250.515C341.57 248.562 338.768 247.062 338.204 246.738C336.403 245.705 334.689 244.59 334.388 244.259C333.489 243.143 334.346 242.648 336.874 242.854C338.395 242.978 375.026 260.872 377.682 262.355ZM203.437 370.519C206.744 369.821 211.876 367.733 215.145 366.404C215.944 366.079 216.631 365.799 217.154 365.596C219.813 364.563 227.913 353.538 230.828 341.102C232.928 331.93 234 318.875 232.8 316.684C232.076 315.417 236.375 319.671 239.576 322.839C240.547 323.799 241.417 324.66 242.015 325.237C260.704 343.127 288.523 357.504 317.414 364.238C331.817 367.627 342.062 368.825 355.821 368.825C378.925 368.825 397.142 364.445 413.688 354.819C414.474 354.361 415.21 353.941 415.912 353.541C421.68 350.249 425.116 348.288 434.52 338.086C445.069 326.642 454.452 300.076 457.582 290.904C458.953 286.772 462.297 270.34 462.297 266.239C462.297 261.384 460.539 259.092 458.139 256.736C453.895 252.729 448.151 251.283 443.393 253.018L441.164 253.844L440.478 251.655C439.492 248.349 437.435 245.705 434.263 243.722C429.548 240.706 428.862 240.5 424.619 240.5C421.318 240.5 420.418 240.665 418.317 241.615L415.874 242.689L415.36 241.202C414.374 238.144 411.067 233.883 408.501 232.649C406.226 231.556 402.287 231.456 399.543 231.947C393.542 233.021 389.255 235.707 387.498 239.467C386.983 240.623 386.34 241.532 386.083 241.532C385.869 241.532 377.425 239.259 367.351 234.962C365.652 234.235 364.056 233.553 362.557 232.913C344.469 225.185 340.548 223.51 340.904 221.411C341.204 219.635 341.118 218.644 340.604 217.115C339.704 214.553 338.675 213.851 335.76 213.851C333.445 213.851 333.445 213.851 333.702 212.736C335.074 206.414 335.032 202.779 333.574 200.465C332.588 198.936 331.431 198.316 328.773 197.945C327.23 197.738 326.501 197.862 324.787 198.771C323.63 199.349 322.644 199.762 322.558 199.68C322.472 199.597 322.772 197.325 323.244 194.639C326.758 174.766 324.043 157.644 315.085 139.466C314.999 139.292 314.899 139.086 314.786 138.851C312.062 133.215 301.111 110.553 269.792 99.1184C268.374 98.6006 267.033 98.1001 265.743 97.6195C255.075 93.6393 247.983 90.9929 230.871 91.0205C211.69 91.0512 205.195 93.6649 192.549 99.2425C190.792 100.027 189.249 100.482 189.12 100.316C188.992 100.11 188.178 99.6144 187.363 99.2009C186.549 98.7881 184.791 97.7552 183.505 96.9289C179.818 94.5321 177.547 93.5408 176.39 93.7885C175.061 94.1193 175.061 95.1933 176.39 95.6893C176.947 95.896 177.59 96.5981 177.847 97.3008C178.404 98.7881 179.047 98.9533 179.433 97.7136C179.605 97.2592 179.862 96.9289 179.99 97.0115C180.039 97.0345 180.202 97.1088 180.451 97.2208C181.078 97.5037 182.247 98.0317 183.505 98.6224C185.263 99.4486 187.192 100.316 187.706 100.523C188.649 100.853 188.349 101.102 184.277 103.415C168.374 112.422 155.429 126.428 148.185 142.375C147.07 144.771 146.085 146.259 145.055 147.086C142.441 149.193 137.297 155.183 136.097 157.538C135.454 158.819 134.082 160.802 133.01 161.959C131.982 163.116 130.867 164.603 130.481 165.223C130.139 165.884 129.796 166.338 129.667 166.256C129.582 166.132 129.71 164.107 130.01 161.753C130.653 156.258 130.653 154.811 130.139 154.688C129.367 154.481 128.253 157.373 127.781 160.967C127.438 163.157 127.352 166.462 127.567 169.85L127.824 175.221L124.781 170.47C123.734 168.881 122.704 167.292 121.971 166.164L121.971 166.163L121.969 166.16L121.968 166.159L121.967 166.158L121.966 166.156C121.502 165.44 121.158 164.91 121.009 164.686C119.894 163.116 119.251 160.761 119.722 159.976C119.979 159.522 119.937 159.315 119.508 159.315C118.608 159.315 116.851 162.083 115.693 165.264C115.136 166.752 114.578 167.991 114.407 167.991C113.764 167.991 114.065 153.2 114.75 148.449C116.165 139.07 119.894 127.502 121.566 127.502C121.908 127.502 122.208 127.337 122.208 127.089C122.208 126.345 121.094 126.635 120.194 127.585C118.179 129.692 115.522 136.178 113.85 143.078C112.693 147.829 111.964 153.944 111.707 160.596C111.492 166.339 111.578 167.289 112.435 170.429C113.421 173.941 114.193 174.974 115.521 174.478C115.993 174.313 116.207 173.693 116.207 172.536C116.207 171.627 116.722 168.9 117.365 166.462L118.479 162.084L118.951 163.901C119.551 166.008 123.066 172.536 126.238 177.287C128.424 180.51 128.467 180.716 129.196 185.756C129.582 188.607 130.781 195.541 133.568 206.208C136.03 215.632 149.869 224.981 153.325 227.316L153.327 227.317C153.781 227.623 154.055 227.809 154.1 227.857C154.529 228.311 155.129 228.559 155.472 228.436C155.857 228.311 156.072 228.476 156.072 228.931C156.072 229.344 156.372 229.881 156.715 230.129C157.144 230.418 157.444 231.534 157.529 233.476C157.744 237.359 160.744 244.796 163.058 247.234C164.559 248.804 167.688 249.465 171.16 248.886C173.432 248.556 174.075 248.308 173.86 247.812C173.732 247.482 174.546 247.895 175.661 248.721C188.691 258.306 201.894 264.049 216.725 266.528C222.469 267.478 231.985 268.015 237.171 267.643C241.758 267.355 241.758 267.355 241.544 268.222C241.244 269.379 241.63 270.081 247.93 280.368C252.945 288.508 253.374 289.045 258.947 294.54C270.777 306.315 283.679 315.445 298.297 322.51C312.056 329.12 334.024 334.615 354.107 336.351C374.189 338.086 388.612 320.32 388.569 315.776C388.484 309.537 387.583 305.447 385.398 301.481C383.254 297.638 381.84 296.316 375.41 292.185C368.252 287.599 363.837 283.839 360.922 279.831C359.079 277.311 358.393 274.46 358.393 272.932C358.393 271.94 359.721 269.709 361.693 269.255C363.493 268.8 363.837 268.841 365.851 269.792C367.051 270.329 370.181 271.733 372.752 272.932C375.367 274.089 377.896 275.246 378.41 275.493C379.927 275.899 380.568 278.761 380.916 280.311C380.993 280.658 381.056 280.939 381.111 281.112C381.711 283.26 384.551 286.035 386.384 286.979C389.601 288.638 397.529 288.859 399.715 286.587C400.272 286.009 402.12 285.297 402.5 285.513C402.881 285.728 404.258 287.516 404.258 288.962C404.301 291.441 405.63 293.714 408.458 295.986C413.817 300.283 417.975 301.316 422.175 299.415C424.361 298.423 426.153 298.036 426.153 298.036C426.153 298.036 427.94 300.234 428.048 300.985C428.89 306.855 437.906 309.316 440.307 309.564C440.857 309.617 441.928 309.39 443.015 309.159C444.469 308.852 445.953 308.537 446.265 308.876C446.877 309.542 436.02 326.848 434.52 329.038C420.246 349.696 392.47 362.338 358.478 363.661C336.403 364.528 309.27 358.578 285.737 347.754C270.692 340.772 257.361 332.219 243.087 320.238C240.601 318.172 237.729 315.817 236.7 314.991C235.671 314.206 233.228 311.52 231.342 309.042C228.17 304.91 226.37 303.422 226.37 304.827C226.37 305.447 228.427 309.248 230.784 313.008C231.728 314.495 232.328 315.528 232.114 315.363C231.899 315.197 231.213 318.172 230.571 321.973C228.47 334.161 224.998 346.184 221.483 353.662C219.554 357.711 215.856 360.734 214.741 361.561C210.626 364.577 204.466 365.932 195.936 366.759C185.134 367.792 169.231 365.478 157.1 361.099C153.886 359.942 145.613 356.596 145.055 356.224C145.022 356.191 144.832 355.003 144.567 353.344C144.492 352.876 144.412 352.371 144.327 351.844C142.784 341.639 140.64 302.348 140.64 284.169C140.64 276.65 140.555 274.997 140.04 274.997C138.969 274.997 138.54 275.989 138.069 279.542C136.997 287.64 137.212 329.906 138.369 338.788L138.626 340.813L137.168 340.028C134.939 338.788 126.452 330.484 123.495 326.642C120.991 323.356 119.503 319.15 118.389 316.002C118.13 315.27 117.892 314.596 117.665 314.003C111.45 297.394 113.636 278.757 122.208 261.983C129.496 247.688 138.455 239.756 151.571 235.913C153.714 235.294 155.6 234.633 155.815 234.468C156.629 233.724 151.399 234.096 148.527 234.963C139.183 237.731 129.41 245.292 122.766 254.96C113.422 268.511 109.221 288.508 112.178 305.571C112.864 309.62 115.65 318.379 116.422 318.998C116.49 319.064 116.843 319.777 117.376 320.855C118.851 323.836 121.706 329.61 123.752 332.219C126.238 335.483 133.74 342.589 136.868 344.779L138.84 346.142L139.14 349.489C139.698 355.893 139.912 356.471 142.912 358.62C150.414 364.115 165.202 369.237 178.575 371.056C184.791 371.882 198.294 371.593 203.437 370.519ZM348.32 331.723C323.415 329.616 293.324 318.171 271.549 300.489C262.376 293.01 250.459 278.468 245.744 270.412C244.758 268.759 244.03 267.974 243.173 267.767C242.272 267.52 243.044 267.271 246.73 266.693C262.29 264.132 277.421 257.893 289.638 249.01L291.438 247.73L291.953 248.928C293.11 251.613 297.568 254.34 300.868 254.34C302.197 254.34 306.655 252.398 309.356 250.622L311.199 249.424L312.699 250.869C314.071 252.192 314.328 252.274 316.9 252.274C319.857 252.274 323.415 250.994 325.387 249.175L326.458 248.225L329.502 250.167C331.131 251.283 335.675 253.72 339.575 255.662C345.405 258.554 351.577 261.9 357.45 265.371L358.393 265.95L357.492 267.106C356.549 268.346 354.793 270.701 354.793 274.295C354.793 278.344 359.161 285.619 367.523 290.615C374.092 294.54 385.398 302.26 384.969 313.545C384.917 314.908 383.34 318.296 381.24 321.353C379.868 323.295 376.053 326.187 372.581 327.881C366.665 330.732 356.249 332.384 348.32 331.723ZM119.766 146.259C120.923 146.507 121.695 146.879 121.523 147.044C120.965 147.581 118.008 147.333 117.322 146.672C116.25 145.681 116.507 144.978 118.008 144.689C118.78 144.565 119.937 143.945 120.58 143.326C121.223 142.706 121.78 142.417 121.78 142.624C121.78 143.161 119.637 145.061 118.565 145.474C117.879 145.764 118.094 145.887 119.766 146.259ZM136.826 146.92C138.069 146.259 137.811 145.804 136.354 146.011C134.897 146.218 134.811 146.053 135.754 144.648C136.14 144.111 136.354 143.326 136.268 142.912C136.14 142.375 135.84 142.624 135.154 143.945C134.639 144.896 133.911 145.681 133.568 145.681C132.496 145.681 132.41 146.507 133.439 146.879C134.768 147.416 135.797 147.416 136.826 146.92ZM121.995 124.362C120.965 124.527 117.751 125.767 114.922 127.13C112.05 128.452 109.606 129.568 109.435 129.527C105.063 129.072 111.15 122.048 122.208 114.86C132.796 107.96 139.955 104.324 146.599 102.465C150.757 101.308 155.429 101.143 156.758 102.093C157.486 102.63 157.229 102.672 154.057 102.713C147.199 102.713 139.269 106.101 126.366 114.405C119.68 118.702 111.921 124.858 111.921 125.849C111.921 126.056 113.164 125.643 114.707 124.982C118.008 123.536 121.394 122.792 122.894 123.123C124.481 123.536 124.137 124.073 121.995 124.362ZM138.583 127.915C142.613 127.13 142.784 127.089 142.784 126.675C142.784 126.469 141.241 126.263 139.312 126.18L135.84 126.056L139.054 122.544C140.812 120.603 142.87 118.661 143.598 118.206C145.184 117.214 145.27 116.512 143.984 116.099L142.998 115.81L144.069 115.438C144.67 115.232 145.784 115.148 146.556 115.273C147.713 115.438 147.97 115.355 147.842 114.777C147.713 114.199 147.242 114.075 145.141 114.116C139.012 114.199 136.397 115.769 141.198 116.512C142.526 116.719 143.641 117.049 143.641 117.256C143.641 117.421 143.427 117.586 143.17 117.586C142.355 117.586 135.454 124.321 134.597 125.973C133.268 128.411 133.996 128.783 138.583 127.915ZM166.874 111.885C165.631 111.968 165.331 112.174 165.416 112.752L165.43 112.837C165.477 113.142 165.505 113.318 165.434 113.371C165.338 113.443 165.062 113.292 164.414 112.938L164.301 112.876C163.487 112.463 163.402 112.257 163.873 111.926C164.173 111.678 164.987 111.307 165.631 111.182L166.831 110.893L165.931 109.984C165.459 109.447 165.202 108.951 165.331 108.786C165.673 108.456 169.874 108.91 170.474 109.365C170.732 109.571 171.117 109.53 171.374 109.282C171.975 108.704 172.789 109.158 172.789 110.067C172.789 110.563 172.661 110.604 172.275 110.232C171.931 109.902 171.631 109.902 171.246 110.191C170.903 110.48 170.646 110.48 170.431 110.149C170.303 109.943 169.489 109.737 168.631 109.737C167.84 109.737 167.466 109.737 167.39 109.882C167.321 110.012 167.493 110.259 167.817 110.728C168.501 111.758 168.46 111.761 166.888 111.884L166.874 111.885ZM160.358 100.895C160.358 100.358 159.844 99.4077 159.201 98.7881L158.001 97.6317L164.43 97.8787C167.988 98.0445 172.017 98.4163 173.432 98.7881C174.846 99.1184 176.475 99.3661 177.075 99.3661C177.976 99.3661 177.804 99.2009 176.133 98.3331C173.218 96.8873 169.489 96.1853 162.33 95.6893C153.757 95.1107 149.428 95.896 150.242 97.9613C150.371 98.3747 151.057 98.5814 152.085 98.5814C154.185 98.5814 157.615 99.7795 158.772 100.895C160.015 102.093 160.358 102.093 160.358 100.895ZM139.44 210.298C142.912 214.595 147.499 219.47 149.642 221.122C150.928 222.114 152.043 222.94 152.128 222.94C152.171 222.94 151.228 221.04 150.028 218.726C145.184 209.43 142.355 200.176 141.026 189.516C140.726 187.161 140.255 185.178 139.74 184.352C138.712 182.699 138.712 180.551 139.783 178.526C140.34 177.452 140.64 176.089 140.64 174.601V172.329L138.583 174.395C136.568 176.42 134.639 177.246 134.639 176.006C134.639 175.097 137.811 170.718 139.483 169.355C140.812 168.28 140.983 167.908 141.412 164.686C141.712 162.744 142.398 159.315 142.955 157.042C143.555 154.77 143.898 152.828 143.812 152.746C143.512 152.457 133.439 163.607 132.068 167.164C131.766 167.946 130.953 169.313 130.31 170.139L129.196 171.518C129.196 171.518 129.542 173.45 129.924 175.877C130.311 178.329 130.492 180.015 130.654 181.516C130.87 183.525 131.05 185.204 131.639 187.947C132.325 191.334 133.01 194.267 133.182 194.474C133.311 194.722 133.868 196.622 134.425 198.729C135.625 203.398 137.64 208.025 139.44 210.298ZM313.385 249.382L312.485 248.514C312.485 248.514 327.425 230.219 330.102 223.477C332.145 218.333 333.347 216.874 334.969 216.874C335.877 216.874 336.617 217.074 336.96 217.57C337.56 218.437 338.139 219.511 337.367 223.188C336.082 229.138 334.109 233.063 328.194 241.532C326.823 243.474 325.065 245.623 324.294 246.366C322.493 247.977 318.443 249.63 316.085 250.002C314.585 250.208 314.156 250.126 313.385 249.382Z" fill="#00160A"/>
<path d="M432.077 289.8C437.41 275.796 436.603 272.812 435.678 272.52C435.678 272.52 433.641 273.636 432.741 275.99C431.069 280.411 425.347 291.979 423.204 294.045C420.675 296.483 420.675 296.483 418.103 296.483C415.531 296.483 408.114 292.75 407.104 289.07C405.488 283.182 412.445 262.728 412.616 261.572L411.459 260.786C410.687 261.489 400.652 290.823 387.455 283.179C385.944 282.304 382.74 278.18 382.483 275.99C381.054 269.628 387.608 247.379 388.722 242.81C389.72 238.719 394.913 234.923 401.3 234.923C411.116 234.923 409.798 243.193 414.195 246.107C416.143 247.399 419.345 245.058 420.332 244.88C425.862 243.888 427.981 245.043 432.034 248.144C435.163 250.537 437.478 255.275 440.027 256.944C441.442 257.871 442.944 256.604 443.436 256.366C445.453 255.39 449.78 256.117 450.98 256.944C452.74 257.684 457.052 261.678 457.732 264.002C460.82 274.532 451.072 297.878 447.391 302.258C441.3 309.507 426.744 303.804 432.077 289.8Z" fill="white"/>
<path fill-rule="evenodd" clip-rule="evenodd" d="M185.648 251.426C197.393 258.574 209.504 263.242 223.306 264.523C234.194 265.515 248.874 264.151 259.418 260.846C268.291 258.078 280.294 250.409 288.309 243.923C303.869 231.363 313.685 211.744 317.972 190.922C318.571 187.988 319.487 180.615 319.444 173.302C319.444 164.791 315.558 141.533 303.783 128.123C279.498 100.463 239.579 88.0035 206.03 98.6499C193.927 102.49 181.042 109.448 171.311 118.537C159.052 130.064 150.008 145.764 146.407 161.794C142.635 178.734 147.542 198.978 156.072 215.587C162.887 228.808 174.118 244.361 185.648 251.426ZM300.097 201.499C292.038 224.841 271.035 242.277 244.63 247.565C240.601 248.35 237.815 248.639 232.156 248.722C228.17 248.846 224.184 248.804 223.37 248.722C204.894 246.573 190.835 240.004 177.89 227.527C172.232 222.032 169.831 219.058 166.317 213.191C160.787 203.895 157.829 194.392 156.929 182.948C153.843 143.74 182.948 111.059 223.927 107.671C240.001 106.349 257.832 111.1 271.377 120.355C276.393 123.784 285.48 132.46 288.309 136.509C289.467 138.121 300.697 153.945 302.669 163.034C305.198 174.85 304.212 189.641 300.097 201.499Z" fill="white"/>
<path fill-rule="evenodd" clip-rule="evenodd" d="M319.459 173.301C319.459 201.032 305.85 231.35 288.285 244.298C279.906 250.475 268.954 257.956 259.418 260.846C245.442 265.081 223.306 264.523 223.306 264.523C223.306 264.523 245.89 261.612 254.259 258.366C278.258 249.056 291.359 234.766 299.449 221.056C315.417 193.991 319.459 172.628 319.459 173.301Z" fill="#E7EAEE"/>
<path fill-rule="evenodd" clip-rule="evenodd" d="M223.798 243.764C212.353 242.359 200.994 238.434 191.821 232.608C186.377 229.179 178.147 221.123 174.161 215.38C168.46 207.117 164.688 198.276 162.845 188.773C161.516 181.873 161.558 171.255 162.887 165.099C164.259 158.82 166.017 154.027 169.145 147.954C172.789 140.93 176.647 135.765 182.433 130.188C192.292 120.685 203.737 114.653 217.368 111.761C221.783 110.852 237.772 110.108 238.329 110.811C238.458 111.017 239.315 111.555 240.215 112.009C241.115 112.505 243.516 114.24 245.487 115.934C248.445 118.413 249.774 119.983 252.346 123.867C254.103 126.511 255.518 128.907 255.518 129.114C255.518 129.568 256.89 130.395 257.661 130.395C258.733 130.395 259.461 127.296 259.676 121.842C259.804 118.826 260.062 116.347 260.233 116.347C260.833 116.347 267.434 119.859 270.52 121.842C276.565 125.726 282.608 131.179 287.066 136.881C289.081 139.442 289.381 140.103 289.381 141.673C289.381 143.12 289.809 144.235 291.138 146.466C294.482 152.085 297.096 159.15 298.682 166.958C299.711 172.206 299.711 182.121 298.639 187.616C295.725 202.738 287.066 217.776 275.793 227.32C266.234 235.376 256.075 240.334 244.073 242.772C239.958 243.639 227.613 244.218 223.798 243.764ZM193.15 215.504C193.535 215.091 193.793 214.471 193.664 214.182C193.626 214.095 193.089 213.852 192.303 213.496C190.472 212.666 187.288 211.223 185.908 209.72C180.421 203.688 178.407 199.184 177.164 189.888C175.963 180.841 176.972 174.724 179.135 164.892C180.191 160.097 182.996 156.135 184.741 153.671C185.929 151.995 186.625 151.012 185.949 150.928C184.277 150.68 184.02 150.804 182.262 152.416C178.49 155.886 176.775 158.654 174.975 163.984C172.189 172.329 171.651 194.884 177.164 205.051C182.677 215.219 192.164 216.578 193.15 215.504ZM254.103 180.799C253.375 187.217 250.288 196.499 246.688 200.548C245.016 202.448 238.879 205.712 233.699 205.051C228.696 204.412 224.784 202.159 221.441 197.325C218.568 193.152 217.085 188.087 216.082 181.708C214.35 170.692 221.912 157.869 225.17 154.688C228.47 151.424 230.828 150.267 233.828 150.226C236.743 150.226 238.629 150.846 241.587 152.87C246.988 156.506 255.518 168.327 254.103 180.799ZM196.322 146.631C197.179 145.681 197.308 145.227 197.051 143.45C196.879 141.797 196.536 141.136 195.636 140.434C194.05 139.195 192.078 139.195 190.621 140.517C189.592 141.467 189.464 141.797 189.592 144.069C189.721 146.507 189.806 146.672 191.221 147.416C193.107 148.408 194.95 148.119 196.322 146.631ZM223.069 121.14C215.354 126.469 212.01 128.659 208.538 130.725C205.795 132.377 204.938 132.419 204.938 130.932C204.938 130.146 205.538 129.279 207.081 127.915L209.224 126.015L205.066 125.478C200.394 124.899 195.85 123.66 194.864 122.709C193.235 121.099 194.65 120.727 199.28 121.553C201.337 121.883 205.323 122.297 208.153 122.379L213.296 122.586L217.025 119.983C225.212 114.281 233.699 111.059 237.772 112.05C240.301 112.629 240.001 113.29 237.129 113.62C233.828 113.992 231.814 115.067 223.069 121.14Z" fill="white"/>
<path d="M234.085 199.391C234.085 199.184 234.342 198.978 234.685 198.978C235.028 198.978 235.457 199.184 235.585 199.391C235.714 199.639 235.457 199.804 234.986 199.804C234.471 199.804 234.085 199.639 234.085 199.391Z" fill="white"/>
<path d="M236.658 199.018C236.658 198.564 237.729 198.151 238.929 198.151C239.872 198.192 239.872 198.192 239.058 198.77C238.114 199.472 236.658 199.596 236.658 199.018Z" fill="white"/>
<path d="M230.014 197.945C229.885 197.614 229.713 197.036 229.585 196.705C229.456 196.292 229.67 196.085 230.227 196.085C230.699 196.085 231.085 196.333 231.085 196.664C231.085 196.994 231.213 197.531 231.342 197.903C231.514 198.358 231.385 198.564 230.913 198.564C230.527 198.564 230.099 198.275 230.014 197.945Z" fill="white"/>
<path d="M232.285 196.91C232.071 195.671 232.542 195.258 234.085 195.258C234.557 195.258 234.942 195.671 235.114 196.373C235.457 197.572 234.9 198.15 233.399 198.15C232.713 198.15 232.414 197.861 232.285 196.91Z" fill="white"/>
<path d="M227.913 197.118C227.099 196.498 227.099 196.498 227.998 196.498C228.556 196.498 228.942 196.746 228.942 197.118C228.942 197.861 228.942 197.861 227.913 197.118Z" fill="white"/>
<path d="M236.529 197.076C235.972 196.539 236.229 194.928 236.914 194.679C238.158 194.225 238.715 194.432 238.972 195.506C239.144 196.126 239.229 196.663 239.144 196.704C238.8 197.076 236.786 197.324 236.529 197.076Z" fill="white"/>
<path d="M240.343 196.21C240.215 196.087 240.086 195.55 240.086 195.054C240.086 194.351 240.43 194.062 241.458 193.856C242.359 193.691 242.916 193.773 243.173 194.103C243.602 194.764 243.602 195.591 243.216 195.797C242.444 196.21 240.644 196.459 240.343 196.21Z" fill="white"/>
<path d="M225.941 194.929C225.941 194.433 226.327 194.02 226.884 193.896C227.999 193.607 227.956 193.565 228.17 194.64C228.256 195.259 228.041 195.508 227.141 195.59C226.198 195.714 225.941 195.548 225.941 194.929Z" fill="white"/>
<path d="M229.199 194.969C228.599 194.35 228.984 193.193 229.798 193.193C230.356 193.193 230.656 193.482 230.656 193.978C230.656 194.763 229.67 195.424 229.199 194.969Z" fill="white"/>
<path d="M231.77 193.732C231.428 192.946 232.156 192.368 233.571 192.368C234.214 192.368 234.514 192.616 234.514 193.153C234.514 193.607 234.128 194.021 233.571 194.186C232.156 194.516 232.071 194.516 231.77 193.732Z" fill="white"/>
<path d="M244.159 193.606C244.287 193.399 244.501 193.193 244.63 193.193C244.759 193.193 244.716 193.399 244.587 193.606C244.459 193.854 244.244 194.02 244.116 194.02C243.987 194.02 244.03 193.854 244.159 193.606Z" fill="white"/>
<path d="M235.628 192.904C235.286 192.078 235.714 191.664 237.086 191.458C237.857 191.375 238.201 191.541 238.286 192.119C238.586 193.483 236.143 194.226 235.628 192.904Z" fill="white"/>
<path d="M225.341 192.203C224.955 190.839 225.041 190.715 226.156 190.715C226.755 190.715 227.227 190.881 227.227 191.087C227.227 191.294 227.356 191.748 227.484 192.079C227.613 192.492 227.356 192.74 226.627 192.864C225.812 193.029 225.512 192.864 225.341 192.203Z" fill="white"/>
<path d="M239.657 191.747C239.657 191.003 239.958 190.672 240.772 190.466C241.972 190.176 242.658 190.755 242.658 192.077C242.658 192.614 242.315 192.779 241.158 192.779C239.829 192.779 239.657 192.656 239.657 191.747Z" fill="white"/>
<path d="M224.055 191.748C223.927 191.417 224.012 191.128 224.226 191.128C224.484 191.128 224.655 191.417 224.655 191.748C224.655 192.078 224.569 192.368 224.484 192.368C224.398 192.368 224.226 192.078 224.055 191.748Z" fill="white"/>
<path d="M228.384 192.078C227.784 191.541 228.127 190.384 228.899 190.178C229.37 190.054 229.842 190.095 229.97 190.219C230.485 190.674 230.185 191.872 229.541 192.119C228.727 192.409 228.727 192.409 228.384 192.078Z" fill="white"/>
<path d="M243.687 191.79C243.215 190.591 243.73 189.682 244.93 189.559C245.83 189.435 246.088 189.6 246.088 190.261C246.088 191.624 245.616 192.368 244.758 192.368C244.287 192.368 243.815 192.12 243.687 191.79Z" fill="white"/>
<path d="M231.385 191.251C230.871 190.797 231.042 189.971 231.77 189.723C232.585 189.434 234.3 190.26 233.828 190.715C233.228 191.211 231.685 191.582 231.385 191.251Z" fill="white"/>
<path d="M235.114 190.218C234.728 189.639 236.1 188.648 237.215 188.648C237.729 188.648 237.943 188.896 237.857 189.35C237.686 190.176 235.5 190.837 235.114 190.218Z" fill="white"/>
<path d="M223.369 189.929C223.369 189.723 223.241 189.268 223.112 188.896C222.983 188.524 223.026 188.235 223.283 188.235C223.84 188.235 224.269 189.805 223.755 190.136C223.541 190.26 223.369 190.177 223.369 189.929Z" fill="white"/>
<path d="M224.526 188.98C224.269 188.071 224.784 187.41 225.77 187.41C226.327 187.41 226.884 189.022 226.541 189.559C226.069 190.261 224.741 189.848 224.526 188.98Z" fill="white"/>
<path d="M227.527 189.185C226.884 188.565 227.27 187.078 228.127 186.871C228.77 186.706 229.113 186.912 229.456 187.656C229.713 188.194 229.842 188.731 229.756 188.813C229.327 189.185 227.784 189.474 227.527 189.185Z" fill="white"/>
<path d="M239.1 189.186C238.543 188.649 238.8 188.318 240.086 187.864C241.158 187.534 241.458 187.575 241.673 188.071C242.058 189.062 239.915 190.012 239.1 189.186Z" fill="white"/>
<path d="M242.873 188.235C242.444 187.574 243.044 186.995 244.158 186.995C245.487 186.995 245.873 188.069 244.673 188.4C243.386 188.731 243.173 188.69 242.873 188.235Z" fill="white"/>
<path d="M246.516 187.244C246.516 186.624 247.288 185.963 247.631 186.293C247.931 186.583 247.331 187.822 246.902 187.822C246.687 187.822 246.516 187.574 246.516 187.244Z" fill="white"/>
<path d="M222.812 186.708C222.64 186.583 222.512 186.046 222.555 185.592C222.555 184.807 222.597 184.807 222.983 185.716C223.412 186.708 223.326 187.204 222.812 186.708Z" fill="white"/>
<path d="M223.627 186.088C223.241 184.642 223.283 184.518 224.398 184.518C225.641 184.518 226.413 186.046 225.47 186.625C224.484 187.203 223.927 187.038 223.627 186.088Z" fill="white"/>
<path d="M238.372 186.914C238.372 186.79 238.586 186.129 238.843 185.385C239.443 183.732 240.772 183.65 241.072 185.261C241.201 185.881 241.244 186.418 241.201 186.459C240.986 186.707 238.372 187.079 238.372 186.914Z" fill="white"/>
<path d="M226.67 185.882C226.498 185.758 226.369 185.262 226.369 184.807C226.369 184.146 226.498 184.105 227.013 184.518C227.356 184.807 227.656 185.303 227.656 185.593C227.656 186.212 227.141 186.377 226.67 185.882Z" fill="white"/>
<path d="M242.101 185.054C241.844 183.774 242.401 183.195 243.73 183.36C244.373 183.443 244.587 183.815 244.587 184.724C244.587 185.757 244.416 186.005 243.473 186.087C242.53 186.212 242.315 186.005 242.101 185.054Z" fill="white"/>
<path d="M246.301 185.22C245.744 183.566 245.916 183.071 247.073 182.947C248.102 182.823 248.23 182.947 248.23 184.021C248.23 184.93 247.973 185.302 247.33 185.467C246.859 185.591 246.387 185.467 246.301 185.22Z" fill="white"/>
<path d="M222.169 182.864C222.169 182.079 222.255 181.749 222.383 182.162C222.469 182.533 222.469 183.195 222.383 183.608C222.255 183.98 222.169 183.649 222.169 182.864Z" fill="white"/>
<path d="M223.241 183.403C222.684 182.907 222.941 181.296 223.627 181.047C224.613 180.676 225.084 181.13 225.084 182.494C225.084 183.361 224.87 183.692 224.312 183.692C223.883 183.692 223.369 183.568 223.241 183.403Z" fill="white"/>
<path d="M225.812 182.286C225.641 181.666 225.555 181.005 225.727 180.881C226.155 180.468 226.413 181.129 226.284 182.327L226.155 183.484L225.812 182.286Z" fill="white"/>
<path d="M239.657 181.998C239.657 181.543 239.872 181.296 240.086 181.42C240.343 181.543 240.515 181.957 240.515 182.287C240.515 182.618 240.343 182.866 240.086 182.866C239.872 182.866 239.657 182.494 239.657 181.998Z" fill="white"/>
<path d="M241.586 182.535C240.987 181.915 241.458 180.8 242.444 180.552C243.687 180.263 243.73 180.263 244.116 181.461C244.373 182.204 244.201 182.37 243.087 182.535C242.401 182.659 241.715 182.618 241.586 182.535Z" fill="white"/>
<path d="M245.53 181.749C245.058 181.336 245.187 179.973 245.659 179.973C245.916 179.973 246.087 179.808 246.087 179.559C246.087 179.353 245.83 179.147 245.487 179.147C244.758 179.147 244.159 177.122 244.758 176.544C245.53 175.8 246.387 176.585 246.902 178.61C247.202 179.684 247.502 180.923 247.63 181.336C247.802 181.873 247.63 182.039 246.816 182.039C246.259 182.039 245.659 181.915 245.53 181.749Z" fill="white"/>
<path d="M247.845 179.561C247.545 178.321 246.774 175.842 246.216 174.024C245.359 171.38 245.273 170.719 245.744 170.43C246.044 170.223 246.43 170.058 246.559 170.058C247.031 170.058 248.745 178.528 248.574 180.18L248.445 181.833L247.845 179.561Z" fill="white"/>
<path d="M221.74 179.353C221.74 178.692 221.826 178.444 221.955 178.857C222.04 179.229 222.04 179.808 221.955 180.097C221.826 180.345 221.74 180.055 221.74 179.353Z" fill="white"/>
<path d="M222.597 179.269C222.769 177.823 224.012 177.492 224.355 178.814C224.655 179.888 224.741 179.765 223.455 180.178C222.555 180.426 222.469 180.343 222.597 179.269Z" fill="white"/>
<path d="M240.687 178.897C240.343 177.699 241.072 176.997 242.444 177.162C243.473 177.286 243.859 179.062 243.001 179.6C241.93 180.261 240.944 179.972 240.687 178.897Z" fill="white"/>
<path d="M225.083 178.567C225.083 177.865 225.298 177.493 225.769 177.493C226.198 177.493 226.37 177.782 226.284 178.402C226.069 179.724 225.083 179.848 225.083 178.567Z" fill="white"/>
<path d="M221.269 176.832C221.269 176.378 221.397 176.254 221.526 176.585C221.654 176.874 221.612 177.246 221.483 177.37C221.354 177.535 221.226 177.287 221.269 176.832Z" fill="white"/>
<path d="M222.083 176.708C222.083 176.088 222.34 175.84 222.984 175.84C223.583 175.84 223.798 176.047 223.712 176.543C223.498 177.617 222.083 177.741 222.083 176.708Z" fill="white"/>
<path d="M224.441 176.337C224.141 175.593 224.141 175.593 225.427 175.262C226.198 175.015 226.37 175.139 226.37 175.758C226.37 176.75 224.826 177.246 224.441 176.337Z" fill="white"/>
<path d="M239.958 175.758C239.657 174.725 240.215 174.188 241.715 174.188C242.444 174.188 242.658 174.436 242.658 175.221C242.658 175.84 242.401 176.254 242.058 176.254C241.715 176.254 241.158 176.378 240.815 176.501C240.429 176.626 240.129 176.378 239.958 175.758Z" fill="white"/>
<path d="M243.687 174.809C243.344 173.982 243.859 173.363 244.845 173.363C245.445 173.363 245.659 173.652 245.659 174.396C245.659 175.14 245.445 175.429 244.801 175.429C244.33 175.429 243.815 175.14 243.687 174.809Z" fill="white"/>
<path d="M221.654 174.229C221.654 173.362 222.64 172.37 223.069 172.825C223.241 172.949 223.37 173.527 223.37 174.064C223.37 174.725 223.112 175.014 222.512 175.014C221.955 175.014 221.654 174.725 221.654 174.229Z" fill="white"/>
<path d="M224.012 173.733C223.669 172.7 224.055 172.245 225.512 172.039C226.842 171.874 227.27 173.237 226.113 174.064C224.998 174.848 224.312 174.725 224.012 173.733Z" fill="white"/>
<path d="M239.529 173.486C239.229 173.239 239.1 171.71 239.358 171.71C239.4 171.71 240.044 171.545 240.815 171.338C242.101 170.966 242.187 171.008 242.144 172.123C242.101 172.949 241.844 173.363 241.201 173.528C240.044 173.817 239.872 173.817 239.529 173.486Z" fill="white"/>
<path d="M237.943 172.535C237.943 172.246 238.072 172.122 238.243 172.246C238.372 172.411 238.372 172.659 238.243 172.824C238.072 172.948 237.943 172.824 237.943 172.535Z" fill="white"/>
<path d="M242.744 171.874C242.873 171.171 244.201 170.139 244.501 170.469C244.63 170.593 244.844 171.089 244.973 171.626C245.273 172.452 245.144 172.535 243.944 172.535C242.915 172.535 242.616 172.37 242.744 171.874Z" fill="white"/>
<path d="M222.083 171.833C222.083 171.627 222.298 171.214 222.512 170.883C222.855 170.388 222.941 170.428 222.941 171.214C222.941 171.71 222.769 172.123 222.512 172.123C222.298 172.123 222.083 171.998 222.083 171.833Z" fill="white"/>
<path d="M223.369 170.924C223.369 169.767 224.269 169.395 224.955 170.263C225.383 170.882 225.383 171.089 224.955 171.378C224.055 171.915 223.369 171.75 223.369 170.924Z" fill="white"/>
<path d="M236.4 170.388C235.628 169.562 235.628 169.521 236.357 169.769C236.786 169.934 237.343 170.058 237.557 170.058C237.772 170.058 237.943 170.347 237.943 170.677C237.943 171.545 237.343 171.463 236.4 170.388Z" fill="white"/>
<path d="M227.184 170.346C225.341 168.983 225.084 165.925 226.798 165.925C227.956 165.925 229.028 167.66 228.856 169.272C228.727 170.759 228.213 171.09 227.184 170.346Z" fill="white"/>
<path d="M238.929 170.594C239.1 170.469 239.358 170.469 239.529 170.594C239.657 170.759 239.529 170.883 239.229 170.883C238.929 170.883 238.8 170.759 238.929 170.594Z" fill="white"/>
<path d="M245.402 168.982C245.531 168.61 245.659 168.238 245.659 168.156C245.659 168.073 245.873 167.991 246.088 167.991C246.345 167.991 246.516 168.363 246.516 168.817C246.516 169.312 246.216 169.643 245.83 169.643C245.359 169.643 245.23 169.436 245.402 168.982Z" fill="white"/>
<path d="M222.941 168.858C222.941 167.908 223.841 166.338 224.355 166.338C225.255 166.338 224.613 168.982 223.669 169.147C223.283 169.23 222.941 169.106 222.941 168.858Z" fill="white"/>
<path d="M232.585 168.404L231.299 168.114L232.456 167.825C233.657 167.495 234.514 167.742 234.514 168.445C234.514 168.858 234.471 168.858 232.585 168.404Z" fill="white"/>
<path d="M231.085 166.42C231.085 164.726 232.071 164.478 232.971 165.966C233.571 166.957 233.614 167.164 233.057 167.164C232.714 167.164 232.156 167.288 231.77 167.412C231.257 167.618 231.085 167.371 231.085 166.42Z" fill="white"/>
<path d="M238.543 166.999C236.614 166.172 235.371 163.983 235.371 161.38C235.371 159.521 235.543 159.067 236.7 158.034C237.429 157.372 238.158 156.835 238.372 156.835C239.315 156.835 242.787 160.017 243.944 162L245.273 164.272L243.859 165.718C242.23 167.371 240.43 167.826 238.543 166.999Z" fill="white"/>
<path d="M229.585 165.926C229.456 165.719 229.541 165.513 229.756 165.513C230.013 165.513 230.227 165.719 230.227 165.926C230.227 166.174 230.142 166.34 230.056 166.34C229.927 166.34 229.713 166.174 229.585 165.926Z" fill="white"/>
<path d="M223.969 165.264C224.098 164.892 224.226 164.521 224.226 164.438C224.226 164.355 224.612 164.273 225.083 164.273C226.155 164.273 226.198 164.934 225.127 165.513C223.969 166.091 223.669 166.05 223.969 165.264Z" fill="white"/>
<path d="M227.356 164.768C226.37 164.645 226.069 164.108 226.713 163.736C226.884 163.612 227.656 163.405 228.427 163.24C229.585 162.992 229.798 163.075 229.798 163.777C229.798 164.645 228.899 165.017 227.356 164.768Z" fill="white"/>
<path d="M230.656 163.364C230.656 162.869 230.699 162.58 230.785 162.662C230.828 162.745 231.171 163.157 231.471 163.571C231.985 164.149 231.942 164.273 231.342 164.273C230.913 164.273 230.656 163.943 230.656 163.364Z" fill="white"/>
<path d="M224.655 163.075C224.655 162.827 224.87 162.538 225.083 162.414C225.341 162.29 225.512 162.455 225.512 162.786C225.512 163.157 225.341 163.447 225.083 163.447C224.87 163.447 224.655 163.282 224.655 163.075Z" fill="white"/>
<path d="M226.241 162.453C225.898 161.627 228.941 160.718 229.456 161.503C229.842 162.164 229.456 162.453 227.827 162.784C226.841 162.99 226.413 162.908 226.241 162.453Z" fill="white"/>
<path d="M230.271 161.132C230.271 160.678 230.399 160.554 230.527 160.885C230.656 161.174 230.613 161.546 230.485 161.669C230.356 161.835 230.227 161.587 230.271 161.132Z" fill="white"/>
<path d="M226.627 160.472C227.141 159.563 228.642 158.075 229.027 158.075C229.456 158.075 229.499 160.017 229.07 160.265C228.856 160.348 228.17 160.555 227.527 160.72C226.584 160.926 226.369 160.885 226.627 160.472Z" fill="white"/>
<path d="M230.056 159.521C229.585 158.282 229.799 157.744 230.828 157.579C231.899 157.372 231.899 157.372 231.213 158.654C230.356 160.306 230.399 160.306 230.056 159.521Z" fill="white"/>
<path d="M229.798 157.043C229.798 156.96 230.656 156.382 231.727 155.803C233.013 155.06 233.914 154.812 234.557 154.977C235.328 155.225 235.114 155.39 233.228 156.258C231.128 157.166 229.798 157.497 229.798 157.043Z" fill="white"/>
<path d="M253.589 120.438C252.432 118.827 249.988 116.224 248.23 114.654C246.473 113.084 245.316 111.803 245.659 111.803C246.602 111.803 253.803 113.703 255.603 114.447C257.103 115.067 257.147 115.15 256.761 116.43C256.546 117.174 256.375 119.033 256.375 120.562C256.375 122.132 256.246 123.371 256.075 123.371C255.86 123.371 254.789 122.049 253.589 120.438Z" fill="white"/>
<path d="M166.359 245.58C164.602 244.713 164.216 244.217 161.987 239.962C158.772 233.93 158.687 232.525 161.73 235.954C162.93 237.317 165.716 240.127 167.902 242.193C171.631 245.663 171.803 245.911 170.56 245.746C169.66 245.622 169.317 245.705 169.531 246.035C170.046 246.779 168.417 246.572 166.359 245.58Z" fill="white"/>
<path fill-rule="evenodd" clip-rule="evenodd" d="M238.195 320.855C237.839 320.04 238.236 319.102 239.081 318.759L240.005 318.382C248.983 314.679 254.137 312.454 257.639 308.922C261.141 305.39 261.56 300.202 262.218 297.045C262.398 296.179 264.433 297.7 265.332 297.874C266.231 298.048 266.814 298.892 266.633 299.758C265.842 303.554 263.712 307.172 260.283 310.607C256.865 314.03 250.248 317.7 240.369 321.708C239.524 322.052 238.551 321.669 238.195 320.855Z" fill="#00160A"/>
<path fill-rule="evenodd" clip-rule="evenodd" d="M278.799 156.006C279.587 155.554 280.606 155.803 281.074 156.562C285.77 164.165 288.285 172.856 288.285 181.898C288.285 209.291 265.246 231.498 236.826 231.498C229.273 231.498 221.949 229.928 215.242 226.937C214.41 226.565 211.266 223.611 214.431 224.812C217.597 226.014 229.846 228.711 236.914 228.711C263.5 228.711 282.31 207.523 282.31 181.898C282.31 173.436 278.799 165.925 278.222 158.199C278.155 157.303 278.011 156.458 278.799 156.006Z" fill="#00160A"/>
<path fill-rule="evenodd" clip-rule="evenodd" d="M114.397 277.102C114.983 276.423 116.03 275.051 116.734 275.616C119.624 277.936 122.708 280.624 126.007 281.143C129.439 281.684 133.512 281.684 138.218 281.134C139.129 281.028 139.955 281.653 140.065 282.53C140.176 283.408 139.527 284.204 138.617 284.311C133.619 284.894 129.239 284.894 125.472 284.302C121.571 283.688 117.943 282.032 114.61 279.355C113.905 278.789 113.81 277.781 114.397 277.102Z" fill="#00160A"/>
<path d="M149.642 221.122C147.499 219.47 142.912 214.595 139.44 210.298C137.64 208.025 135.625 203.398 134.425 198.729C133.868 196.622 133.311 194.722 133.182 194.474C133.01 194.267 132.325 191.334 131.639 187.947C130.61 183.154 130.828 181.609 129.924 175.877C129.542 173.45 129.196 171.518 129.196 171.518L130.31 170.139C130.953 169.313 131.766 167.946 132.068 167.164C133.439 163.607 143.512 152.457 143.812 152.746C143.898 152.828 143.555 154.77 142.955 157.042C142.398 159.315 141.712 162.744 141.412 164.686C140.983 167.908 140.812 168.28 139.483 169.355C137.811 170.718 134.639 175.097 134.639 176.006C134.639 177.246 136.568 176.42 138.583 174.395L140.64 172.329V174.601C140.64 176.089 140.34 177.452 139.783 178.526C138.712 180.551 138.712 182.699 139.74 184.352C140.255 185.178 140.726 187.161 141.026 189.516C142.355 200.176 145.184 209.43 150.028 218.726C151.228 221.04 152.171 222.94 152.128 222.94C152.043 222.94 150.928 222.114 149.642 221.122Z" fill="white"/>
<path fill-rule="evenodd" clip-rule="evenodd" d="M328.001 246.614L331.088 247.936C331.728 248.22 338.788 251.49 347.268 255.418C360.94 261.75 378.305 269.792 378.41 269.792C378.582 269.792 379.386 267.999 379.568 265.908C379.997 261.405 381.582 255.29 383.425 251.035C384.283 249.134 384.969 246.759 384.969 246.553C384.969 246.458 384.272 246.187 383.131 245.744C381.773 245.216 379.786 244.443 377.596 243.433C366.794 238.434 345.662 228.229 343.047 226.7C340.475 225.254 339.961 225.13 339.961 226.08C339.961 227.32 337.346 233.063 335.331 236.161C334.26 237.855 332.159 240.912 330.659 242.937L328.001 246.614ZM377.682 262.355C378.911 263.042 376.781 264.049 376.268 264.214C373.238 264.462 369.673 263.913 366.751 262.272C365.224 261.228 353.195 254.788 345.217 250.515C341.57 248.562 338.768 247.062 338.204 246.738C336.403 245.705 334.689 244.59 334.388 244.259C333.489 243.143 334.346 242.648 336.874 242.854C338.395 242.978 375.026 260.872 377.682 262.355Z" fill="white"/>
<path d="M297.225 250.332C296.11 249.961 294.91 249.134 294.139 248.184L292.853 246.655L297.396 242.317C304.384 235.707 309.527 228.483 314.156 220.427C315.699 217.741 320.286 206.91 320.843 205.712C321.701 203.977 322.343 203.316 324.187 202.324C326.373 201.084 328.859 200.672 329.93 201.374C331.988 202.696 331.988 206.869 329.93 214.057C327.659 221.948 324.616 227.609 318.314 235.748C317.328 236.987 315.485 239.425 314.156 241.119C310.599 245.664 308.284 247.853 305.155 249.547C302.069 251.2 300.268 251.406 297.225 250.332Z" fill="white"/>
<path d="M313.385 249.381L312.485 248.514C312.485 248.514 327.425 230.218 330.102 223.476C332.145 218.332 333.347 216.873 334.969 216.873C335.876 216.873 336.617 217.072 336.96 217.568C337.56 218.436 338.139 219.51 337.367 223.187C336.081 229.136 334.109 233.061 328.194 241.531C326.822 243.473 325.065 245.621 324.294 246.365C322.493 247.977 318.442 249.63 316.085 250.002C314.585 250.208 314.156 250.124 313.385 249.381Z" fill="white"/>
<path fill-rule="evenodd" clip-rule="evenodd" d="M338.48 230.251C339.344 228.345 339.961 226.682 339.961 226.08C339.961 225.13 340.475 225.254 343.047 226.7C345.662 228.229 366.794 238.434 377.596 243.433C381.625 245.292 384.969 246.346 384.969 246.553C384.969 246.759 337.564 232.272 338.48 230.251Z" fill="#E7EAEE"/>
<path fill-rule="evenodd" clip-rule="evenodd" d="M191.821 232.607C186.377 229.178 178.146 221.122 174.161 215.378C168.459 207.115 164.687 198.274 162.844 188.771C161.515 181.872 161.558 171.254 162.887 165.098C164.259 158.818 166.016 154.025 169.145 147.952C172.789 140.928 176.647 135.764 182.433 130.187C188.108 124.717 162.887 147.336 169.145 187.806C174.161 221.719 195.714 235.079 191.821 232.607Z" fill="#E7EAEE"/>
</svg>
