<svg width="221" height="8" viewBox="0 0 221 8" fill="none" xmlns="http://www.w3.org/2000/svg">
<path d="M189.363 0.19998C189.613 0.393209 189.837 0.593118 190.034 0.79862C190.134 0.967117 190.2 1.13939 190.23 1.31329L189.432 1.67228C180.216 1.48615 170.916 1.47584 161.619 1.53133C152.323 1.58683 143.041 1.64036 133.756 1.91979C134.25 1.9301 134.744 1.94238 135.238 1.94975C143.173 2.06712 151.109 2.17515 159.043 2.3048C162.229 2.35686 165.408 2.46146 168.592 2.53414C175.84 2.70062 183.094 2.8455 190.34 3.03064C196.095 3.17797 201.844 3.36507 207.593 3.54727C211.041 3.65678 214.484 3.7879 217.928 3.91559C218.668 3.94309 219.401 3.99564 220.202 4.04033C220.319 4.20569 220.498 4.36068 220.731 4.49852C221.173 4.69004 220.961 4.87519 220.858 5.06229C220.741 5.22599 220.6 5.38582 220.435 5.54062C219.822 5.52883 219.286 5.52539 218.754 5.50722C215.174 5.3815 211.595 5.25464 208.016 5.12663C207.547 5.09175 207.07 5.0858 206.598 5.10895C204.987 5.21033 203.354 5.21759 201.739 5.13055C193.872 4.96997 185.995 4.92282 178.118 4.89532C170.446 4.86929 162.774 4.80741 155.1 4.81183C146.073 4.81723 137.045 4.87125 128.017 4.91545C122.587 4.94197 117.155 4.97537 111.726 5.03283C107.384 5.0785 103.045 5.15462 98.7076 5.23565C91.521 5.36955 84.3356 5.51197 77.1512 5.6629C72.2037 5.76603 67.255 5.8726 62.3161 6.00127C58.2543 6.10685 54.1947 6.24681 50.1405 6.37007C47.6369 6.4457 45.1312 6.5066 42.6309 6.59303C37.8996 6.75673 33.1711 6.92746 28.4455 7.10524C25.4135 7.21917 22.3707 7.33704 19.3495 7.48142C17.1306 7.55287 14.9292 7.70993 12.769 7.9509C11.6645 8.09135 11.0754 7.92684 11.0614 7.50401C11.0614 7.37976 11.1101 7.25552 11.1166 7.13127C11.1166 7.03305 11.096 6.93483 11.0787 6.79291C10.5015 6.81255 9.98608 6.83269 9.47065 6.84791C9.0654 6.86553 8.65843 6.87372 8.25134 6.87246C6.99307 6.85134 6.66932 6.73545 6.42568 6.24878C6.3802 6.15694 6.33037 6.06461 6.27297 5.95412C5.30547 5.93951 4.33744 5.97444 3.38719 6.05823C2.85551 6.09801 2.33138 6.15645 1.79645 6.18641C0.8966 6.23896 0.325956 6.10144 0.165693 5.78567C0.0859678 5.58355 0.0306434 5.37961 0 5.17475C0.800824 4.9703 1.68511 4.84198 2.59888 4.7976C6.03517 4.47191 9.5111 4.2392 13.0083 4.10073C18.6774 3.87941 24.3491 3.66808 30.0232 3.46673C34.1431 3.31776 38.2652 3.176 42.3894 3.04144C46.1068 2.91916 49.8276 2.81309 53.5428 2.68933C58.6799 2.51843 63.8137 2.33722 68.9486 2.16091C72.4635 2.03978 75.9785 1.91848 79.4934 1.79701C86.049 1.56915 92.6024 1.33391 99.1602 1.1144C101.795 1.026 104.439 0.971977 107.078 0.898313C110.327 0.807952 113.575 0.697457 116.824 0.624284C122.245 0.502002 127.669 0.404273 133.091 0.291813C144.622 0.0546146 156.156 -0.00284043 167.706 0.000106134C172.187 0.000106134 176.667 0.0176192 181.146 0.0526505C183.837 0.0732764 186.544 0.147433 189.363 0.19998ZM51.2093 4.24855C53.1335 4.33302 72.5112 3.99761 75.0028 3.87483C75.1003 3.86992 75.1815 3.82081 75.2703 3.79183C75.2486 3.58607 74.9541 3.46034 74.3975 3.46329C73.4489 3.4682 72.4982 3.48342 71.5539 3.51633C68.1776 3.6337 64.8045 3.76188 61.4292 3.88367C58.0226 4.00644 54.6159 4.12807 51.2093 4.24855Z" fill="#F94962"/>
</svg>
