<svg width="18" height="17" viewBox="0 0 18 17" fill="none" xmlns="http://www.w3.org/2000/svg">
<path d="M7.75587 2.28023e-07C7.66934 4.54257e-05 7.58564 0.0303973 7.51969 0.0856435C7.45374 0.14089 7.40983 0.217439 7.39579 0.301641L7.04071 2.44547C6.61373 2.56795 6.20658 2.73322 5.82285 2.93906L4.02888 1.67555C3.95864 1.62609 3.8729 1.60277 3.78689 1.60972C3.70087 1.61667 3.62013 1.65344 3.55899 1.71352L2.13864 3.11273C2.07794 3.17263 2.04059 3.25171 2.03316 3.33606C2.02573 3.42042 2.04868 3.50466 2.098 3.57398L3.36006 5.3543C3.14809 5.7349 2.97679 6.13866 2.84953 6.56367L0.684774 6.91875C0.599647 6.93289 0.522354 6.97632 0.466616 7.04132C0.410878 7.10632 0.3803 7.1887 0.380311 7.27383V9.25383C0.380155 9.33845 0.410228 9.42041 0.465253 9.48535C0.520277 9.55028 0.596736 9.59402 0.681209 9.60891L2.84739 9.98719C2.97396 10.4115 3.14417 10.8155 3.35649 11.1966L2.07874 12.9593C2.02859 13.0286 2.00494 13.1131 2.01199 13.1979C2.01903 13.2828 2.05633 13.3624 2.11725 13.4227L3.53689 14.8233C3.59749 14.8831 3.6775 14.9199 3.76289 14.9274C3.84828 14.9348 3.9336 14.9124 4.00392 14.8641L5.81287 13.6153C6.19772 13.8224 6.60587 13.9889 7.03429 14.1124L7.39579 16.2591C7.40998 16.3431 7.45395 16.4195 7.51989 16.4746C7.58582 16.5297 7.66944 16.56 7.75587 16.56H9.76376C9.84967 16.5601 9.93288 16.5304 9.99874 16.476C10.0646 16.4216 10.1089 16.346 10.1238 16.2626L10.511 14.1075C10.9377 13.982 11.3439 13.8131 11.7267 13.6048L13.5478 14.8648C13.6181 14.9134 13.7035 14.936 13.7891 14.9287C13.8746 14.9214 13.9548 14.8845 14.0155 14.8247L15.4352 13.4234C15.4964 13.3629 15.5338 13.283 15.5407 13.1978C15.5476 13.1127 15.5236 13.0279 15.473 12.9586L14.1746 11.1811C14.3822 10.8054 14.5494 10.4072 14.6737 9.9893L16.8705 9.60961C16.9551 9.59488 17.0317 9.55119 17.0869 9.48625C17.1421 9.4213 17.1723 9.33925 17.1721 9.25453V7.27453C17.1721 7.1892 17.1413 7.10666 17.0853 7.04162C17.0292 6.97659 16.9516 6.93329 16.8662 6.91945L14.673 6.56578C14.5479 6.14838 14.3802 5.7509 14.1724 5.37539L15.453 3.57609C15.5023 3.50677 15.5253 3.42253 15.5178 3.33817C15.5104 3.25381 15.4731 3.17474 15.4124 3.11484L13.992 1.71492C13.9307 1.65459 13.8496 1.61772 13.7633 1.61089C13.677 1.60407 13.591 1.62773 13.5207 1.67766L11.7232 2.95242C11.3402 2.74493 10.9337 2.57688 10.506 2.4525L10.1238 0.298125C10.109 0.214567 10.0648 0.138842 9.99894 0.0843009C9.93307 0.0297596 9.84978 -9.51917e-05 9.76376 2.28023e-07H7.75587ZM8.06675 0.72H9.45716L9.8208 2.7668C9.8329 2.83545 9.86494 2.89916 9.91304 2.9502C9.96113 3.00125 10.0232 3.03744 10.0918 3.05438C10.6257 3.18558 11.1271 3.39356 11.5848 3.6668C11.646 3.70336 11.7168 3.72139 11.7883 3.71864C11.8598 3.71589 11.9289 3.69248 11.987 3.65133L13.6954 2.44055L14.6787 3.41016L13.4622 5.11945C13.4216 5.17647 13.3986 5.2439 13.3961 5.31354C13.3936 5.38318 13.4116 5.45205 13.448 5.5118C13.7223 5.96213 13.9304 6.4535 14.0633 6.97711C14.0806 7.04531 14.1178 7.10701 14.1703 7.15462C14.2227 7.20222 14.2882 7.23364 14.3585 7.245L16.442 7.58109V8.95219L14.3542 9.31359C14.2846 9.32575 14.22 9.35761 14.1683 9.4053C14.1167 9.45298 14.0802 9.51444 14.0633 9.58219C13.9319 10.1051 13.7237 10.5965 13.4494 11.0468C13.4126 11.1071 13.3945 11.1768 13.3974 11.2471C13.4003 11.3175 13.4241 11.3855 13.4658 11.4427L14.6993 13.1309L13.7161 14.1012L11.9856 12.9037C11.9274 12.8636 11.8587 12.841 11.7878 12.8388C11.7169 12.8365 11.6469 12.8547 11.5863 12.8911C11.1308 13.1643 10.6289 13.3733 10.0967 13.5063C10.0285 13.5233 9.96674 13.5593 9.9188 13.6101C9.87085 13.6609 9.83881 13.7242 9.82651 13.7925L9.45787 15.84H8.06533L7.72165 13.8016C7.70995 13.7323 7.67793 13.6679 7.62952 13.6163C7.58112 13.5647 7.51846 13.5281 7.44927 13.5112C6.91503 13.3814 6.41133 13.1737 5.95049 12.9009C5.88998 12.8652 5.82028 12.8475 5.7498 12.85C5.67932 12.8525 5.61108 12.8751 5.55333 12.915L3.83636 14.1012L2.85238 13.1295L4.06595 11.4567C4.10743 11.3994 4.13095 11.3314 4.13361 11.261C4.13627 11.1906 4.11796 11.1211 4.08093 11.0609C3.80128 10.6052 3.58978 10.1085 3.45631 9.57937C3.43924 9.51198 3.40275 9.45089 3.35126 9.40348C3.29977 9.35607 3.23547 9.32437 3.16611 9.31219L1.11045 8.95219V7.57898L3.16469 7.24219C3.23491 7.2307 3.3002 7.19923 3.35252 7.15163C3.40484 7.10404 3.44191 7.0424 3.45917 6.9743C3.59378 6.44333 3.80517 5.94674 4.08378 5.49211C4.12052 5.43242 4.13887 5.36349 4.13659 5.29371C4.13431 5.22392 4.1115 5.15629 4.07094 5.09906L2.87163 3.40875L3.85632 2.43844L5.55832 3.63797C5.61622 3.67868 5.68492 3.70184 5.75598 3.70458C5.82704 3.70733 5.89737 3.68956 5.95833 3.65344C6.41673 3.38195 6.92161 3.17595 7.4564 3.04664C7.52592 3.02976 7.58887 2.9931 7.63743 2.94122C7.68598 2.88934 7.718 2.82453 7.72949 2.75484L8.06675 0.72ZM8.77622 5.4C7.16756 5.4 5.85565 6.69368 5.85565 8.28C5.85565 9.86632 7.16756 11.16 8.77622 11.16C10.3849 11.16 11.6968 9.86632 11.6968 8.28C11.6968 6.69368 10.3849 5.4 8.77622 5.4ZM8.77622 6.12C9.99028 6.12 10.9666 7.0828 10.9666 8.28C10.9666 9.4772 9.99028 10.44 8.77622 10.44C7.56216 10.44 6.58579 9.4772 6.58579 8.28C6.58579 7.0828 7.56216 6.12 8.77622 6.12Z" fill="black"/>
</svg>
